<svg width="35" height="35" viewBox="0 0 35 35" fill="none" xmlns="http://www.w3.org/2000/svg">
<mask id="mask0_2276_132" style="mask-type:alpha" maskUnits="userSpaceOnUse" x="0" y="0" width="35" height="35">
<rect width="35" height="35" fill="#D9D9D9"/>
</mask>
<g mask="url(#mask0_2276_132)">
<path d="M26.2503 19.3232L29.167 22.2399V29.167C29.167 29.9691 28.8814 30.6557 28.3102 31.2269C27.739 31.7981 27.0524 32.0837 26.2503 32.0837H5.83366C5.03158 32.0837 4.34494 31.7981 3.77376 31.2269C3.20258 30.6557 2.91699 29.9691 2.91699 29.167V8.75033C2.91699 7.94824 3.20258 7.26161 3.77376 6.69043C4.34494 6.11925 5.03158 5.83366 5.83366 5.83366H13.8545C13.66 6.27116 13.5142 6.73904 13.417 7.2373C13.3198 7.73557 13.2469 8.23991 13.1982 8.75033H5.83366V29.167H26.2503V19.3232ZM28.1462 12.9795L32.8128 17.6462L30.7712 19.6878L26.1045 15.0212C25.5941 15.3128 25.0472 15.5559 24.4639 15.7503C23.8805 15.9448 23.2607 16.042 22.6045 16.042C20.7816 16.042 19.2321 15.404 17.9561 14.1279C16.68 12.8519 16.042 11.3024 16.042 9.47949C16.042 7.65658 16.68 6.1071 17.9561 4.83105C19.2321 3.55501 20.7816 2.91699 22.6045 2.91699C24.4274 2.91699 25.9769 3.55501 27.2529 4.83105C28.529 6.1071 29.167 7.65658 29.167 9.47949C29.167 10.1357 29.0698 10.7555 28.8753 11.3389C28.6809 11.9222 28.4378 12.4691 28.1462 12.9795ZM22.6045 13.1253C23.6253 13.1253 24.4882 12.7729 25.193 12.068C25.8979 11.3632 26.2503 10.5003 26.2503 9.47949C26.2503 8.45866 25.8979 7.59581 25.193 6.89095C24.4882 6.18609 23.6253 5.83366 22.6045 5.83366C21.5837 5.83366 20.7208 6.18609 20.016 6.89095C19.3111 7.59581 18.9587 8.45866 18.9587 9.47949C18.9587 10.5003 19.3111 11.3632 20.016 12.068C20.7208 12.7729 21.5837 13.1253 22.6045 13.1253ZM5.83366 29.167V8.75033V18.9587V18.5212V29.167Z" fill="black"/>
</g>
</svg>