<svg width="1920" height="695" viewBox="0 0 1920 695" fill="none" xmlns="http://www.w3.org/2000/svg">
<path fill-rule="evenodd" clip-rule="evenodd" d="M1659 539.5C1658.75 539.371 1658.66 539.069 1658.79 538.825L1658.91 538.588C1659.1 538.229 1658.98 537.784 1658.63 537.574L807.68 24.4095C783.248 9.67581 753.686 6.07968 726.434 14.5262L1.12736 239.33C0.863592 239.411 0.583491 239.264 0.501747 239C0.420008 238.736 0.567548 238.456 0.831286 238.375L769.108 0.252648C769.141 0.242496 769.169 0.22069 769.186 0.191388L769.197 0.173326C769.231 0.117283 769.304 0.0992488 769.36 0.13304C769.389 0.1505 769.424 0.154761 769.456 0.14475L769.543 0.117751C769.713 0.0651075 769.893 0.160136 769.946 0.329942L769.963 0.384629C769.991 0.473457 770.05 0.549077 770.129 0.597091L1569.05 482.383C1618.27 512.063 1682.31 494.248 1709.13 443.418L1917.41 48.7006C1917.54 48.4564 1917.85 48.3629 1918.09 48.4918C1918.33 48.6207 1918.43 48.9231 1918.3 49.1673L1704.65 454.049C1679.91 500.933 1696.06 558.976 1741.46 586.352L1918.83 693.316C1919.07 693.459 1919.14 693.766 1919 694.003C1918.86 694.239 1918.55 694.315 1918.31 694.173L1660.74 538.846C1660.4 538.639 1659.95 538.763 1659.77 539.117L1659.67 539.291C1659.55 539.536 1659.24 539.629 1659 539.5Z" fill="black" fill-opacity="0.5"/>
</svg>
