<svg width="208" height="208" viewBox="0 0 208 208" fill="none" xmlns="http://www.w3.org/2000/svg">
<mask id="mask0_2838_164" style="mask-type:alpha" maskUnits="userSpaceOnUse" x="0" y="0" width="208" height="208">
<rect width="208" height="208" fill="#D9D9D9"/>
</mask>
<g mask="url(#mask0_2838_164)">
<path d="M171.383 196.083L151.666 176.366C144.588 180.989 137.041 184.527 129.024 186.983C121.008 189.439 112.666 190.666 103.999 190.666C92.0105 190.666 80.7438 188.391 70.1993 183.841C59.6549 179.291 50.4827 173.116 42.6827 165.316C34.8827 157.516 28.7077 148.344 24.1577 137.8C19.6077 127.255 17.3327 115.989 17.3327 104C17.3327 95.333 18.5605 86.9913 21.016 78.9747C23.4716 70.958 27.0105 63.4108 31.6327 56.333L11.916 36.6163L24.266 24.2663L183.733 183.733L171.383 196.083ZM103.999 173.333C110.21 173.333 116.241 172.539 122.091 170.95C127.941 169.361 133.61 166.977 139.099 163.8L44.1994 68.8997C41.0216 74.3886 38.6382 80.058 37.0494 85.908C35.4605 91.758 34.666 97.7886 34.666 104C34.666 123.211 41.4188 139.569 54.9244 153.075C68.4299 166.58 84.7882 173.333 103.999 173.333ZM176.366 151.666L163.799 139.1C166.977 133.611 169.36 127.941 170.949 122.091C172.538 116.241 173.333 110.211 173.333 104C173.333 84.7886 166.58 68.4302 153.074 54.9247C139.569 41.4191 123.21 34.6663 103.999 34.6663C97.7882 34.6663 91.7577 35.4608 85.9077 37.0497C80.0577 38.6386 74.3882 41.0219 68.8994 44.1997L56.3327 31.633C63.4105 27.0108 70.9577 23.4719 78.9743 21.0163C86.991 18.5608 95.3327 17.333 103.999 17.333C115.988 17.333 127.255 19.608 137.799 24.158C148.344 28.708 157.516 34.883 165.316 42.683C173.116 50.483 179.291 59.6552 183.841 70.1997C188.391 80.7441 190.666 92.0108 190.666 104C190.666 112.666 189.438 121.008 186.983 129.025C184.527 137.041 180.988 144.589 176.366 151.666Z" fill="white"/>
</g>
</svg>