<svg width="561" height="434" viewBox="0 0 561 434" fill="none" xmlns="http://www.w3.org/2000/svg">
<line x1="0.5" y1="433" x2="0.499981" y2="1" stroke="black"/>
<line y1="433.5" x2="561" y2="433.5" stroke="black"/>
<line y1="353.5" x2="561" y2="353.5" stroke="black"/>
<line y1="273.5" x2="561" y2="273.5" stroke="black"/>
<line y1="193.5" x2="561" y2="193.5" stroke="black"/>
<line y1="113.5" x2="561" y2="113.5" stroke="black"/>
<line y1="0.5" x2="561" y2="0.5" stroke="black"/>
<line y1="33.5" x2="561" y2="33.5" stroke="black"/>
<line x1="400.5" y1="433" x2="400.5" y2="1" stroke="black"/>
<line x1="480.5" y1="433" x2="480.5" y2="1" stroke="black"/>
<line x1="560.5" y1="433" x2="560.5" y2="1" stroke="black"/>
<line x1="320.5" y1="433" x2="320.5" y2="1" stroke="black"/>
<line x1="240.5" y1="433" x2="240.5" y2="1" stroke="black"/>
<line x1="160.5" y1="433" x2="160.5" y2="1" stroke="black"/>
<line x1="80.5" y1="433" x2="80.5" y2="1" stroke="black"/>
<path d="M287.328 61.52V86H280.416V68.288L275.412 71.348L272.316 66.704L280.992 61.52H287.328Z" fill="black"/>
<path d="M22.2899 9.416C24.5299 9.416 26.3219 9.872 27.6659 10.784C29.0099 11.696 29.6819 13.336 29.6819 15.704C29.6819 17.608 29.3699 19.336 28.7459 20.888C28.1379 22.424 27.1459 23.664 25.7699 24.608C24.4099 25.536 22.6419 26 20.4659 26H15.9539L18.2819 9.416H22.2899ZM21.0899 11.792L19.4339 23.624H20.9219C22.2659 23.624 23.3539 23.232 24.1859 22.448C25.0179 21.664 25.6019 20.672 25.9379 19.472C26.2899 18.272 26.4659 17.008 26.4659 15.68C26.4659 14.16 26.1219 13.136 25.4339 12.608C24.7459 12.064 23.7859 11.792 22.5539 11.792H21.0899ZM39.9209 9.056C41.8569 9.056 43.3689 9.648 44.4569 10.832C45.5449 12 46.0889 13.664 46.0889 15.824C46.0889 17.472 45.8089 19.104 45.2489 20.72C44.6889 22.32 43.7769 23.664 42.5129 24.752C41.2489 25.824 39.6249 26.36 37.6409 26.36C35.7049 26.36 34.1929 25.776 33.1049 24.608C32.0169 23.424 31.4729 21.76 31.4729 19.616C31.4729 17.984 31.7529 16.368 32.3129 14.768C32.8729 13.152 33.7849 11.8 35.0489 10.712C36.3129 9.608 37.9369 9.056 39.9209 9.056ZM39.7289 11.48C38.4969 11.48 37.5049 11.936 36.7529 12.848C36.0009 13.744 35.4729 14.832 35.1689 16.112C34.8649 17.376 34.7129 18.608 34.7129 19.808C34.7129 22.56 35.7449 23.936 37.8089 23.936C39.0569 23.936 40.0489 23.488 40.7849 22.592C41.5369 21.68 42.0649 20.592 42.3689 19.328C42.6729 18.048 42.8249 16.8 42.8249 15.584C42.8249 14.16 42.5609 13.12 42.0329 12.464C41.5209 11.808 40.7529 11.48 39.7289 11.48ZM63.0522 26H60.0042L60.5562 18.992C60.7482 16.32 60.9882 14.032 61.2762 12.128L56.6202 24.2H53.6202L52.1082 12.176C51.9962 14.08 51.6522 16.424 51.0762 19.208L49.7562 26H46.7082L50.3322 9.416H54.1962L55.5402 21.152L59.8842 9.416H64.0842L63.0522 26Z" fill="black"/>
<path d="M107.635 9.056C109.779 9.056 111.531 9.752 112.891 11.144L111.115 12.872C110.603 12.392 110.075 12.04 109.531 11.816C108.987 11.592 108.379 11.48 107.707 11.48C106.843 11.48 106.139 11.68 105.595 12.08C105.067 12.48 104.803 13.024 104.803 13.712C104.803 14.096 104.891 14.416 105.067 14.672C105.243 14.928 105.531 15.168 105.931 15.392C106.347 15.616 106.947 15.856 107.731 16.112C109.123 16.544 110.187 17.112 110.923 17.816C111.659 18.52 112.027 19.496 112.027 20.744C112.027 21.688 111.787 22.592 111.307 23.456C110.827 24.304 110.075 25 109.051 25.544C108.027 26.088 106.739 26.36 105.187 26.36C102.787 26.36 100.883 25.584 99.4754 24.032L101.347 22.208C101.875 22.752 102.451 23.168 103.075 23.456C103.715 23.728 104.443 23.864 105.259 23.864C106.331 23.864 107.171 23.624 107.779 23.144C108.403 22.648 108.715 21.976 108.715 21.128C108.715 20.52 108.507 20.032 108.091 19.664C107.691 19.28 106.963 18.904 105.907 18.536C104.387 18.024 103.275 17.424 102.571 16.736C101.883 16.032 101.539 15.128 101.539 14.024C101.539 13.192 101.771 12.4 102.235 11.648C102.699 10.88 103.387 10.256 104.299 9.776C105.227 9.296 106.339 9.056 107.635 9.056ZM125.798 9.416L125.126 11.768H119.102L118.43 16.4H123.686L123.374 18.752H118.118L117.446 23.624H123.902L123.566 26H113.966L116.294 9.416H125.798ZM135.079 9.056C137.143 9.056 138.831 9.728 140.143 11.072L138.319 12.68C137.775 12.248 137.255 11.936 136.759 11.744C136.279 11.552 135.711 11.456 135.055 11.456C133.775 11.456 132.727 11.896 131.911 12.776C131.095 13.64 130.503 14.736 130.135 16.064C129.767 17.376 129.583 18.72 129.583 20.096C129.583 21.44 129.847 22.416 130.375 23.024C130.903 23.632 131.703 23.936 132.775 23.936C133.719 23.936 134.615 23.712 135.463 23.264L136.087 18.968H133.639V16.616H139.495L138.391 24.68C136.599 25.8 134.639 26.36 132.511 26.36C130.527 26.36 128.999 25.8 127.927 24.68C126.871 23.56 126.343 21.928 126.343 19.784C126.343 18.04 126.647 16.352 127.255 14.72C127.879 13.072 128.847 11.72 130.159 10.664C131.471 9.592 133.111 9.056 135.079 9.056Z" fill="black"/>
<path d="M194.091 9.416L193.395 11.936H189.123L187.155 26H184.011L185.979 11.936H181.563L181.923 9.416H194.091ZM205.622 9.416L204.95 11.768H198.926L198.254 16.4H203.51L203.198 18.752H197.942L197.27 23.624H203.726L203.39 26H193.79L196.118 9.416H205.622ZM219.432 13.688C219.432 14.808 219.12 15.824 218.496 16.736C217.888 17.648 216.872 18.352 215.448 18.848L218.688 26H215.232L212.496 19.352H210.432L209.496 26H206.352L208.68 9.416H213.528C215.48 9.416 216.952 9.784 217.944 10.52C218.936 11.24 219.432 12.296 219.432 13.688ZM210.744 17.072H212.76C213.96 17.072 214.824 16.752 215.352 16.112C215.896 15.456 216.168 14.688 216.168 13.808C216.168 13.072 215.928 12.544 215.448 12.224C214.984 11.888 214.248 11.72 213.24 11.72H211.488L210.744 17.072Z" fill="black"/>
<path d="M273.069 15.824C273.069 17.76 272.685 19.592 271.917 21.32C271.165 23.048 269.973 24.288 268.341 25.04C269.285 25.072 270.101 25.224 270.789 25.496C271.477 25.752 272.109 26.112 272.685 26.576L270.453 29.072C269.653 28.128 268.829 27.44 267.981 27.008C267.149 26.576 266.029 26.36 264.621 26.36C262.685 26.36 261.173 25.776 260.085 24.608C258.997 23.424 258.453 21.76 258.453 19.616C258.453 17.984 258.733 16.368 259.293 14.768C259.853 13.152 260.765 11.8 262.029 10.712C263.293 9.608 264.917 9.056 266.901 9.056C268.837 9.056 270.349 9.648 271.437 10.832C272.525 12 273.069 13.664 273.069 15.824ZM261.693 19.952C261.693 22.608 262.725 23.936 264.789 23.936C266.037 23.936 267.037 23.48 267.789 22.568C268.541 21.656 269.061 20.552 269.349 19.256C269.653 17.944 269.805 16.648 269.805 15.368C269.805 12.776 268.773 11.48 266.709 11.48C265.477 11.48 264.485 11.936 263.733 12.848C262.981 13.76 262.453 14.864 262.149 16.16C261.845 17.44 261.693 18.704 261.693 19.952ZM287.365 20.624C287.125 22.352 286.397 23.744 285.181 24.8C283.981 25.84 282.421 26.36 280.501 26.36C278.741 26.36 277.397 25.936 276.469 25.088C275.557 24.224 275.101 23.056 275.101 21.584C275.101 21.232 275.125 20.88 275.173 20.528L276.733 9.416H279.877L278.317 20.48C278.269 20.832 278.245 21.16 278.245 21.464C278.245 22.28 278.445 22.888 278.845 23.288C279.245 23.688 279.861 23.888 280.693 23.888C281.733 23.888 282.541 23.592 283.117 23C283.693 22.408 284.069 21.528 284.245 20.36L285.781 9.416H288.925L287.365 20.624ZM298.661 26L298.181 22.16H292.709L291.173 26H287.909L295.349 9.416H299.189L301.949 26H298.661ZM293.669 19.76H297.893L296.909 11.72L293.669 19.76Z" fill="black"/>
<path d="M508.225 9.056C510.369 9.056 512.121 9.752 513.481 11.144L511.705 12.872C511.193 12.392 510.665 12.04 510.121 11.816C509.577 11.592 508.969 11.48 508.297 11.48C507.433 11.48 506.729 11.68 506.185 12.08C505.657 12.48 505.393 13.024 505.393 13.712C505.393 14.096 505.481 14.416 505.657 14.672C505.833 14.928 506.121 15.168 506.521 15.392C506.937 15.616 507.537 15.856 508.321 16.112C509.713 16.544 510.777 17.112 511.513 17.816C512.249 18.52 512.617 19.496 512.617 20.744C512.617 21.688 512.377 22.592 511.897 23.456C511.417 24.304 510.665 25 509.641 25.544C508.617 26.088 507.329 26.36 505.777 26.36C503.377 26.36 501.473 25.584 500.065 24.032L501.937 22.208C502.465 22.752 503.041 23.168 503.665 23.456C504.305 23.728 505.033 23.864 505.849 23.864C506.921 23.864 507.761 23.624 508.369 23.144C508.993 22.648 509.305 21.976 509.305 21.128C509.305 20.52 509.097 20.032 508.681 19.664C508.281 19.28 507.553 18.904 506.497 18.536C504.977 18.024 503.865 17.424 503.161 16.736C502.473 16.032 502.129 15.128 502.129 14.024C502.129 13.192 502.361 12.4 502.825 11.648C503.289 10.88 503.977 10.256 504.889 9.776C505.817 9.296 506.929 9.056 508.225 9.056ZM523.126 26L522.646 22.16H517.174L515.638 26H512.374L519.814 9.416H523.654L526.414 26H523.126ZM518.134 19.76H522.358L521.374 11.72L518.134 19.76ZM524.47 3.656L525.43 6.056L519.814 7.976L519.166 6.416L524.47 3.656ZM537.388 17.24C538.38 17.416 539.18 17.776 539.788 18.32C540.396 18.848 540.7 19.648 540.7 20.72C540.7 22.32 540.116 23.6 538.948 24.56C537.78 25.52 535.86 26 533.188 26H528.22L530.548 9.416H535.276C537.084 9.416 538.5 9.72 539.523 10.328C540.548 10.936 541.06 11.88 541.06 13.16C541.06 14.264 540.708 15.16 540.004 15.848C539.316 16.536 538.444 17 537.388 17.24ZM533.332 11.744L532.708 16.232H534.604C535.612 16.232 536.404 15.984 536.98 15.488C537.556 14.992 537.844 14.304 537.844 13.424C537.844 12.8 537.62 12.368 537.172 12.128C536.74 11.872 536.124 11.744 535.324 11.744H533.332ZM533.404 23.624C534.908 23.624 535.956 23.352 536.548 22.808C537.156 22.264 537.46 21.504 537.46 20.528C537.46 19.136 536.516 18.44 534.628 18.44H532.396L531.676 23.624H533.404Z" fill="black"/>
<path d="M429.397 9.056C431.541 9.056 433.293 9.752 434.653 11.144L432.877 12.872C432.365 12.392 431.837 12.04 431.293 11.816C430.749 11.592 430.141 11.48 429.469 11.48C428.605 11.48 427.901 11.68 427.357 12.08C426.829 12.48 426.565 13.024 426.565 13.712C426.565 14.096 426.653 14.416 426.829 14.672C427.005 14.928 427.293 15.168 427.693 15.392C428.109 15.616 428.709 15.856 429.493 16.112C430.885 16.544 431.949 17.112 432.685 17.816C433.421 18.52 433.789 19.496 433.789 20.744C433.789 21.688 433.549 22.592 433.069 23.456C432.589 24.304 431.837 25 430.813 25.544C429.789 26.088 428.501 26.36 426.949 26.36C424.549 26.36 422.645 25.584 421.237 24.032L423.109 22.208C423.637 22.752 424.213 23.168 424.837 23.456C425.477 23.728 426.205 23.864 427.021 23.864C428.093 23.864 428.933 23.624 429.541 23.144C430.165 22.648 430.477 21.976 430.477 21.128C430.477 20.52 430.269 20.032 429.853 19.664C429.453 19.28 428.725 18.904 427.669 18.536C426.149 18.024 425.037 17.424 424.333 16.736C423.645 16.032 423.301 15.128 423.301 14.024C423.301 13.192 423.533 12.4 423.997 11.648C424.461 10.88 425.149 10.256 426.061 9.776C426.989 9.296 428.101 9.056 429.397 9.056ZM447.559 9.416L446.887 11.768H440.863L440.191 16.4H445.447L445.135 18.752H439.879L439.207 23.624H445.663L445.327 26H435.727L438.055 9.416H447.559ZM461.538 9.416L456.066 17.072L459.666 26H456.282L453.978 19.16L449.778 26H446.346L452.346 17.168L449.082 9.416H452.466L454.41 15.224L458.13 9.416H461.538Z" fill="black"/>
<path d="M356.351 15.824C356.351 17.76 355.967 19.592 355.199 21.32C354.447 23.048 353.255 24.288 351.623 25.04C352.567 25.072 353.383 25.224 354.071 25.496C354.759 25.752 355.391 26.112 355.967 26.576L353.735 29.072C352.935 28.128 352.111 27.44 351.263 27.008C350.431 26.576 349.311 26.36 347.903 26.36C345.967 26.36 344.455 25.776 343.367 24.608C342.279 23.424 341.735 21.76 341.735 19.616C341.735 17.984 342.015 16.368 342.575 14.768C343.135 13.152 344.047 11.8 345.311 10.712C346.575 9.608 348.199 9.056 350.183 9.056C352.119 9.056 353.631 9.648 354.719 10.832C355.807 12 356.351 13.664 356.351 15.824ZM344.975 19.952C344.975 22.608 346.007 23.936 348.071 23.936C349.319 23.936 350.319 23.48 351.071 22.568C351.823 21.656 352.343 20.552 352.631 19.256C352.935 17.944 353.087 16.648 353.087 15.368C353.087 12.776 352.055 11.48 349.991 11.48C348.759 11.48 347.767 11.936 347.015 12.848C346.263 13.76 345.735 14.864 345.431 16.16C345.127 17.44 344.975 18.704 344.975 19.952ZM370.647 20.624C370.407 22.352 369.679 23.744 368.463 24.8C367.263 25.84 365.703 26.36 363.783 26.36C362.023 26.36 360.679 25.936 359.751 25.088C358.839 24.224 358.383 23.056 358.383 21.584C358.383 21.232 358.407 20.88 358.455 20.528L360.015 9.416H363.159L361.599 20.48C361.551 20.832 361.527 21.16 361.527 21.464C361.527 22.28 361.727 22.888 362.127 23.288C362.527 23.688 363.143 23.888 363.975 23.888C365.015 23.888 365.823 23.592 366.399 23C366.975 22.408 367.351 21.528 367.527 20.36L369.063 9.416H372.207L370.647 20.624ZM378.961 9.416L376.633 26H373.489L375.817 9.416H378.961Z" fill="black"/>
<path d="M440.312 60.944C442.16 60.944 443.732 61.208 445.028 61.736C446.348 62.264 447.344 62.996 448.016 63.932C448.688 64.868 449.024 65.936 449.024 67.136C449.024 68.6 448.616 69.836 447.8 70.844C446.984 71.852 445.784 72.596 444.2 73.076C445.856 73.268 447.212 73.868 448.268 74.876C449.324 75.86 449.852 77.3 449.852 79.196C449.852 80.564 449.468 81.824 448.7 82.976C447.956 84.104 446.828 85.016 445.316 85.712C443.828 86.384 442.028 86.72 439.916 86.72C436.052 86.72 433.04 85.4 430.88 82.76L434.588 79.124C435.428 79.94 436.208 80.528 436.928 80.888C437.672 81.224 438.5 81.392 439.412 81.392C440.348 81.392 441.104 81.152 441.68 80.672C442.28 80.192 442.58 79.496 442.58 78.584C442.58 77.552 442.292 76.796 441.716 76.316C441.164 75.836 440.288 75.596 439.088 75.596H436.928L437.72 70.844H439.196C440.18 70.844 440.924 70.628 441.428 70.196C441.932 69.74 442.184 69.128 442.184 68.36C442.184 67.64 441.932 67.088 441.428 66.704C440.948 66.296 440.276 66.092 439.412 66.092C437.756 66.092 436.22 66.776 434.804 68.144L431.312 64.472C433.736 62.12 436.736 60.944 440.312 60.944Z" fill="black"/>
<path d="M123.771 149.296C125.187 149.296 126.435 149.632 127.515 150.304C128.595 150.976 129.435 151.936 130.035 153.184C130.635 154.432 130.935 155.908 130.935 157.612C130.935 159.244 130.563 160.756 129.819 162.148C129.075 163.516 127.983 164.62 126.543 165.46C125.103 166.3 123.399 166.72 121.431 166.72C118.119 166.72 115.635 165.676 113.979 163.588C112.323 161.5 111.495 158.632 111.495 154.984C111.495 152.176 111.963 149.716 112.899 147.604C113.835 145.492 115.167 143.86 116.895 142.708C118.623 141.532 120.663 140.944 123.015 140.944C124.191 140.944 125.271 141.1 126.255 141.412C127.263 141.7 128.139 142.096 128.883 142.6L126.327 146.74C125.799 146.452 125.295 146.236 124.815 146.092C124.359 145.924 123.831 145.84 123.231 145.84C122.079 145.84 121.131 146.272 120.387 147.136C119.667 148 119.199 149.296 118.983 151.024C120.423 149.872 122.019 149.296 123.771 149.296ZM121.503 161.752C122.295 161.752 122.871 161.392 123.231 160.672C123.615 159.952 123.807 158.944 123.807 157.648C123.807 156.304 123.627 155.368 123.267 154.84C122.931 154.288 122.355 154.012 121.539 154.012C120.699 154.012 119.847 154.372 118.983 155.092C118.983 156.796 119.055 158.128 119.199 159.088C119.367 160.024 119.631 160.708 119.991 161.14C120.351 161.548 120.855 161.752 121.503 161.752Z" fill="black"/>
<path d="M47.0805 146.488H38.6205V150.412C39.7245 149.908 40.8645 149.656 42.0405 149.656C43.3845 149.656 44.5845 149.98 45.6405 150.628C46.7205 151.252 47.5725 152.176 48.1965 153.4C48.8205 154.624 49.1325 156.076 49.1325 157.756C49.1325 159.532 48.7125 161.104 47.8725 162.472C47.0325 163.816 45.8325 164.86 44.2725 165.604C42.7125 166.348 40.9005 166.72 38.8365 166.72C35.2125 166.72 32.3205 165.364 30.1605 162.652L34.0845 159.088C35.2845 160.672 36.7605 161.464 38.5125 161.464C39.5925 161.464 40.4205 161.164 40.9965 160.564C41.5725 159.94 41.8605 159.04 41.8605 157.864C41.8605 156.616 41.6085 155.728 41.1045 155.2C40.6245 154.648 39.9285 154.372 39.0165 154.372C38.2245 154.372 37.3605 154.66 36.4245 155.236H31.7805V141.52H47.8365L47.0805 146.488Z" fill="black"/>
<path d="M36.7835 221.52V246H29.8715V228.288L24.8675 231.348L21.7715 226.704L30.4475 221.52H36.7835ZM47.9227 220.944C49.8667 220.944 51.5227 221.268 52.8907 221.916C54.2587 222.564 55.2787 223.44 55.9507 224.544C56.6467 225.624 56.9947 226.812 56.9947 228.108C56.9947 229.332 56.7667 230.472 56.3107 231.528C55.8787 232.584 55.0147 233.832 53.7187 235.272C52.4467 236.712 50.5507 238.512 48.0307 240.672H57.4987L56.7787 246H39.9667V241.104C42.7507 238.464 44.8027 236.436 46.1227 235.02C47.4667 233.604 48.4027 232.44 48.9307 231.528C49.4587 230.616 49.7227 229.74 49.7227 228.9C49.7227 228.084 49.4947 227.448 49.0387 226.992C48.5827 226.512 47.9467 226.272 47.1307 226.272C46.3387 226.272 45.6187 226.476 44.9707 226.884C44.3467 227.268 43.6987 227.88 43.0267 228.72L38.9587 225.48C39.9907 224.088 41.2627 222.984 42.7747 222.168C44.2867 221.352 46.0027 220.944 47.9227 220.944Z" fill="black"/>
<path d="M35.8518 301.52V326H28.9398V308.288L23.9358 311.348L20.8398 306.704L29.5158 301.52H35.8518ZM48.575 300.944C50.687 300.944 52.487 301.352 53.975 302.168C55.463 302.96 56.579 304.076 57.323 305.516C58.067 306.932 58.439 308.564 58.439 310.412C58.439 313.7 57.851 316.472 56.675 318.728C55.499 320.984 53.687 322.796 51.239 324.164C48.815 325.532 45.695 326.528 41.879 327.152L40.475 322.256C42.587 321.8 44.291 321.308 45.587 320.78C46.883 320.252 47.927 319.604 48.719 318.836C49.535 318.044 50.183 317.036 50.663 315.812C49.991 316.484 49.283 316.976 48.539 317.288C47.819 317.6 46.931 317.756 45.875 317.756C44.579 317.756 43.391 317.432 42.311 316.784C41.231 316.112 40.367 315.164 39.719 313.94C39.071 312.692 38.747 311.24 38.747 309.584C38.747 307.904 39.167 306.416 40.007 305.12C40.871 303.8 42.047 302.78 43.535 302.06C45.047 301.316 46.727 300.944 48.575 300.944ZM48.251 312.932C48.779 312.932 49.295 312.8 49.799 312.536C50.303 312.272 50.747 311.864 51.131 311.312C51.155 309.92 51.083 308.84 50.915 308.072C50.771 307.28 50.507 306.716 50.123 306.38C49.763 306.02 49.223 305.84 48.503 305.84C47.711 305.84 47.075 306.128 46.595 306.704C46.115 307.28 45.875 308.12 45.875 309.224C45.875 311.696 46.667 312.932 48.251 312.932Z" fill="black"/>
<path d="M510.22 300.944C512.164 300.944 513.82 301.268 515.188 301.916C516.556 302.564 517.576 303.44 518.248 304.544C518.944 305.624 519.292 306.812 519.292 308.108C519.292 309.332 519.064 310.472 518.608 311.528C518.176 312.584 517.312 313.832 516.016 315.272C514.744 316.712 512.848 318.512 510.328 320.672H519.796L519.076 326H502.264V321.104C505.048 318.464 507.1 316.436 508.42 315.02C509.764 313.604 510.7 312.44 511.228 311.528C511.756 310.616 512.02 309.74 512.02 308.9C512.02 308.084 511.792 307.448 511.336 306.992C510.88 306.512 510.244 306.272 509.428 306.272C508.636 306.272 507.916 306.476 507.268 306.884C506.644 307.268 505.996 307.88 505.324 308.72L501.256 305.48C502.288 304.088 503.56 302.984 505.072 302.168C506.584 301.352 508.3 300.944 510.22 300.944ZM537.625 306.488H529.165V310.412C530.269 309.908 531.409 309.656 532.585 309.656C533.929 309.656 535.129 309.98 536.185 310.628C537.265 311.252 538.117 312.176 538.741 313.4C539.365 314.624 539.677 316.076 539.677 317.756C539.677 319.532 539.257 321.104 538.417 322.472C537.577 323.816 536.377 324.86 534.817 325.604C533.257 326.348 531.445 326.72 529.381 326.72C525.757 326.72 522.865 325.364 520.705 322.652L524.629 319.088C525.829 320.672 527.305 321.464 529.057 321.464C530.137 321.464 530.965 321.164 531.541 320.564C532.117 319.94 532.405 319.04 532.405 317.864C532.405 316.616 532.153 315.728 531.649 315.2C531.169 314.648 530.473 314.372 529.561 314.372C528.769 314.372 527.905 314.66 526.969 315.236H522.325V301.52H538.381L537.625 306.488Z" fill="black"/>
<path d="M430.255 300.944C432.199 300.944 433.855 301.268 435.223 301.916C436.591 302.564 437.611 303.44 438.283 304.544C438.979 305.624 439.327 306.812 439.327 308.108C439.327 309.332 439.099 310.472 438.643 311.528C438.211 312.584 437.347 313.832 436.051 315.272C434.779 316.712 432.883 318.512 430.363 320.672H439.831L439.111 326H422.299V321.104C425.083 318.464 427.135 316.436 428.455 315.02C429.799 313.604 430.735 312.44 431.263 311.528C431.791 310.616 432.055 309.74 432.055 308.9C432.055 308.084 431.827 307.448 431.371 306.992C430.915 306.512 430.279 306.272 429.463 306.272C428.671 306.272 427.951 306.476 427.303 306.884C426.679 307.268 426.031 307.88 425.359 308.72L421.291 305.48C422.323 304.088 423.595 302.984 425.107 302.168C426.619 301.352 428.335 300.944 430.255 300.944ZM459.991 315.92V321.176H457.471V326H450.487L450.451 321.176H440.191V316.532L446.923 300.764L453.007 302.924L447.499 315.92H450.523L451.351 310.592H457.471V315.92H459.991Z" fill="black"/>
<path d="M350.747 300.944C352.691 300.944 354.347 301.268 355.715 301.916C357.083 302.564 358.103 303.44 358.775 304.544C359.471 305.624 359.819 306.812 359.819 308.108C359.819 309.332 359.591 310.472 359.135 311.528C358.703 312.584 357.839 313.832 356.543 315.272C355.271 316.712 353.375 318.512 350.855 320.672H360.323L359.603 326H342.791V321.104C345.575 318.464 347.627 316.436 348.947 315.02C350.291 313.604 351.227 312.44 351.755 311.528C352.283 310.616 352.547 309.74 352.547 308.9C352.547 308.084 352.319 307.448 351.863 306.992C351.407 306.512 350.771 306.272 349.955 306.272C349.163 306.272 348.443 306.476 347.795 306.884C347.171 307.268 346.523 307.88 345.851 308.72L341.783 305.48C342.815 304.088 344.087 302.984 345.599 302.168C347.111 301.352 348.827 300.944 350.747 300.944ZM369.769 300.944C371.617 300.944 373.189 301.208 374.485 301.736C375.805 302.264 376.801 302.996 377.473 303.932C378.145 304.868 378.481 305.936 378.481 307.136C378.481 308.6 378.073 309.836 377.257 310.844C376.441 311.852 375.241 312.596 373.657 313.076C375.313 313.268 376.669 313.868 377.725 314.876C378.781 315.86 379.309 317.3 379.309 319.196C379.309 320.564 378.925 321.824 378.157 322.976C377.413 324.104 376.285 325.016 374.773 325.712C373.285 326.384 371.485 326.72 369.373 326.72C365.509 326.72 362.497 325.4 360.337 322.76L364.045 319.124C364.885 319.94 365.665 320.528 366.385 320.888C367.129 321.224 367.957 321.392 368.869 321.392C369.805 321.392 370.561 321.152 371.137 320.672C371.737 320.192 372.037 319.496 372.037 318.584C372.037 317.552 371.749 316.796 371.173 316.316C370.621 315.836 369.745 315.596 368.545 315.596H366.385L367.177 310.844H368.653C369.637 310.844 370.381 310.628 370.885 310.196C371.389 309.74 371.641 309.128 371.641 308.36C371.641 307.64 371.389 307.088 370.885 306.704C370.405 306.296 369.733 306.092 368.869 306.092C367.213 306.092 365.677 306.776 364.261 308.144L360.769 304.472C363.193 302.12 366.193 300.944 369.769 300.944Z" fill="black"/>
<path d="M269.694 300.944C271.638 300.944 273.294 301.268 274.662 301.916C276.03 302.564 277.05 303.44 277.722 304.544C278.418 305.624 278.766 306.812 278.766 308.108C278.766 309.332 278.538 310.472 278.082 311.528C277.65 312.584 276.786 313.832 275.49 315.272C274.218 316.712 272.322 318.512 269.802 320.672H279.27L278.55 326H261.738V321.104C264.522 318.464 266.574 316.436 267.894 315.02C269.238 313.604 270.174 312.44 270.702 311.528C271.23 310.616 271.494 309.74 271.494 308.9C271.494 308.084 271.266 307.448 270.81 306.992C270.354 306.512 269.718 306.272 268.902 306.272C268.11 306.272 267.39 306.476 266.742 306.884C266.118 307.268 265.47 307.88 264.798 308.72L260.73 305.48C261.762 304.088 263.034 302.984 264.546 302.168C266.058 301.352 267.774 300.944 269.694 300.944ZM288.784 300.944C290.728 300.944 292.384 301.268 293.752 301.916C295.12 302.564 296.14 303.44 296.812 304.544C297.508 305.624 297.856 306.812 297.856 308.108C297.856 309.332 297.628 310.472 297.172 311.528C296.74 312.584 295.876 313.832 294.58 315.272C293.308 316.712 291.412 318.512 288.892 320.672H298.36L297.64 326H280.828V321.104C283.612 318.464 285.664 316.436 286.984 315.02C288.328 313.604 289.264 312.44 289.792 311.528C290.32 310.616 290.584 309.74 290.584 308.9C290.584 308.084 290.356 307.448 289.9 306.992C289.444 306.512 288.808 306.272 287.992 306.272C287.2 306.272 286.48 306.476 285.832 306.884C285.208 307.268 284.56 307.88 283.888 308.72L279.82 305.48C280.852 304.088 282.124 302.984 283.636 302.168C285.148 301.352 286.864 300.944 288.784 300.944Z" fill="black"/>
<path d="M108.411 300.944C110.355 300.944 112.011 301.268 113.379 301.916C114.747 302.564 115.767 303.44 116.439 304.544C117.135 305.624 117.483 306.812 117.483 308.108C117.483 309.332 117.255 310.472 116.799 311.528C116.367 312.584 115.503 313.832 114.207 315.272C112.935 316.712 111.039 318.512 108.519 320.672H117.987L117.267 326H100.455V321.104C103.239 318.464 105.291 316.436 106.611 315.02C107.955 313.604 108.891 312.44 109.419 311.528C109.947 310.616 110.211 309.74 110.211 308.9C110.211 308.084 109.983 307.448 109.527 306.992C109.071 306.512 108.435 306.272 107.619 306.272C106.827 306.272 106.107 306.476 105.459 306.884C104.835 307.268 104.187 307.88 103.515 308.72L99.447 305.48C100.479 304.088 101.751 302.984 103.263 302.168C104.775 301.352 106.491 300.944 108.411 300.944ZM129.553 300.944C132.721 300.944 135.157 302.06 136.861 304.292C138.565 306.5 139.417 309.668 139.417 313.796C139.417 317.924 138.565 321.116 136.861 323.372C135.157 325.604 132.721 326.72 129.553 326.72C126.385 326.72 123.949 325.604 122.245 323.372C120.541 321.116 119.689 317.924 119.689 313.796C119.689 309.668 120.541 306.5 122.245 304.292C123.949 302.06 126.385 300.944 129.553 300.944ZM129.553 306.092C128.881 306.092 128.353 306.32 127.969 306.776C127.609 307.208 127.345 307.976 127.177 309.08C127.033 310.184 126.961 311.756 126.961 313.796C126.961 315.86 127.033 317.444 127.177 318.548C127.345 319.628 127.609 320.396 127.969 320.852C128.353 321.308 128.881 321.536 129.553 321.536C130.249 321.536 130.777 321.332 131.137 320.924C131.497 320.492 131.749 319.724 131.893 318.62C132.061 317.516 132.145 315.908 132.145 313.796C132.145 311.66 132.061 310.052 131.893 308.972C131.749 307.868 131.497 307.112 131.137 306.704C130.777 306.296 130.249 306.092 129.553 306.092Z" fill="black"/>
<path d="M190.907 300.944C192.851 300.944 194.507 301.268 195.875 301.916C197.243 302.564 198.263 303.44 198.935 304.544C199.631 305.624 199.979 306.812 199.979 308.108C199.979 309.332 199.751 310.472 199.295 311.528C198.863 312.584 197.999 313.832 196.703 315.272C195.431 316.712 193.535 318.512 191.015 320.672H200.483L199.763 326H182.951V321.104C185.735 318.464 187.787 316.436 189.107 315.02C190.451 313.604 191.387 312.44 191.915 311.528C192.443 310.616 192.707 309.74 192.707 308.9C192.707 308.084 192.479 307.448 192.023 306.992C191.567 306.512 190.931 306.272 190.115 306.272C189.323 306.272 188.603 306.476 187.955 306.884C187.331 307.268 186.683 307.88 186.011 308.72L181.943 305.48C182.975 304.088 184.247 302.984 185.759 302.168C187.271 301.352 188.987 300.944 190.907 300.944ZM215.522 301.52V326H208.61V308.288L203.606 311.348L200.51 306.704L209.186 301.52H215.522Z" fill="black"/>
<path d="M28.7625 380.944C30.7065 380.944 32.3625 381.268 33.7305 381.916C35.0985 382.564 36.1185 383.44 36.7905 384.544C37.4865 385.624 37.8345 386.812 37.8345 388.108C37.8345 389.332 37.6065 390.472 37.1505 391.528C36.7185 392.584 35.8545 393.832 34.5585 395.272C33.2865 396.712 31.3905 398.512 28.8705 400.672H38.3385L37.6185 406H20.8065V401.104C23.5905 398.464 25.6425 396.436 26.9625 395.02C28.3065 393.604 29.2425 392.44 29.7705 391.528C30.2985 390.616 30.5625 389.74 30.5625 388.9C30.5625 388.084 30.3345 387.448 29.8785 386.992C29.4225 386.512 28.7865 386.272 27.9705 386.272C27.1785 386.272 26.4585 386.476 25.8105 386.884C25.1865 387.268 24.5385 387.88 23.8665 388.72L19.7985 385.48C20.8305 384.088 22.1025 382.984 23.6145 382.168C25.1265 381.352 26.8425 380.944 28.7625 380.944ZM52.3164 389.296C53.7324 389.296 54.9804 389.632 56.0604 390.304C57.1404 390.976 57.9804 391.936 58.5804 393.184C59.1804 394.432 59.4804 395.908 59.4804 397.612C59.4804 399.244 59.1084 400.756 58.3644 402.148C57.6204 403.516 56.5284 404.62 55.0884 405.46C53.6484 406.3 51.9444 406.72 49.9764 406.72C46.6644 406.72 44.1804 405.676 42.5244 403.588C40.8684 401.5 40.0404 398.632 40.0404 394.984C40.0404 392.176 40.5084 389.716 41.4444 387.604C42.3804 385.492 43.7124 383.86 45.4404 382.708C47.1684 381.532 49.2084 380.944 51.5604 380.944C52.7364 380.944 53.8164 381.1 54.8004 381.412C55.8084 381.7 56.6844 382.096 57.4284 382.6L54.8724 386.74C54.3444 386.452 53.8404 386.236 53.3604 386.092C52.9044 385.924 52.3764 385.84 51.7764 385.84C50.6244 385.84 49.6764 386.272 48.9324 387.136C48.2124 388 47.7444 389.296 47.5284 391.024C48.9684 389.872 50.5644 389.296 52.3164 389.296ZM50.0484 401.752C50.8404 401.752 51.4164 401.392 51.7764 400.672C52.1604 399.952 52.3524 398.944 52.3524 397.648C52.3524 396.304 52.1724 395.368 51.8124 394.84C51.4764 394.288 50.9004 394.012 50.0844 394.012C49.2444 394.012 48.3924 394.372 47.5284 395.092C47.5284 396.796 47.6004 398.128 47.7444 399.088C47.9124 400.024 48.1764 400.708 48.5364 401.14C48.8964 401.548 49.4004 401.752 50.0484 401.752Z" fill="black"/>
<path d="M431.98 380.944C433.828 380.944 435.4 381.208 436.696 381.736C438.016 382.264 439.012 382.996 439.684 383.932C440.356 384.868 440.692 385.936 440.692 387.136C440.692 388.6 440.284 389.836 439.468 390.844C438.652 391.852 437.452 392.596 435.868 393.076C437.524 393.268 438.88 393.868 439.936 394.876C440.992 395.86 441.52 397.3 441.52 399.196C441.52 400.564 441.136 401.824 440.368 402.976C439.624 404.104 438.496 405.016 436.984 405.712C435.496 406.384 433.696 406.72 431.584 406.72C427.72 406.72 424.708 405.4 422.548 402.76L426.256 399.124C427.096 399.94 427.876 400.528 428.596 400.888C429.34 401.224 430.168 401.392 431.08 401.392C432.016 401.392 432.772 401.152 433.348 400.672C433.948 400.192 434.248 399.496 434.248 398.584C434.248 397.552 433.96 396.796 433.384 396.316C432.832 395.836 431.956 395.596 430.756 395.596H428.596L429.388 390.844H430.864C431.848 390.844 432.592 390.628 433.096 390.196C433.6 389.74 433.852 389.128 433.852 388.36C433.852 387.64 433.6 387.088 433.096 386.704C432.616 386.296 431.944 386.092 431.08 386.092C429.424 386.092 427.888 386.776 426.472 388.144L422.98 384.472C425.404 382.12 428.404 380.944 431.98 380.944ZM456.557 381.52V406H449.645V388.288L444.641 391.348L441.545 386.704L450.221 381.52H456.557Z" fill="black"/>
<path d="M349.484 380.944C351.332 380.944 352.904 381.208 354.2 381.736C355.52 382.264 356.516 382.996 357.188 383.932C357.86 384.868 358.196 385.936 358.196 387.136C358.196 388.6 357.788 389.836 356.972 390.844C356.156 391.852 354.956 392.596 353.372 393.076C355.028 393.268 356.384 393.868 357.44 394.876C358.496 395.86 359.024 397.3 359.024 399.196C359.024 400.564 358.64 401.824 357.872 402.976C357.128 404.104 356 405.016 354.488 405.712C353 406.384 351.2 406.72 349.088 406.72C345.224 406.72 342.212 405.4 340.052 402.76L343.76 399.124C344.6 399.94 345.38 400.528 346.1 400.888C346.844 401.224 347.672 401.392 348.584 401.392C349.52 401.392 350.276 401.152 350.852 400.672C351.452 400.192 351.752 399.496 351.752 398.584C351.752 397.552 351.464 396.796 350.888 396.316C350.336 395.836 349.46 395.596 348.26 395.596H346.1L346.892 390.844H348.368C349.352 390.844 350.096 390.628 350.6 390.196C351.104 389.74 351.356 389.128 351.356 388.36C351.356 387.64 351.104 387.088 350.6 386.704C350.12 386.296 349.448 386.092 348.584 386.092C346.928 386.092 345.392 386.776 343.976 388.144L340.484 384.472C342.908 382.12 345.908 380.944 349.484 380.944ZM370.588 380.944C373.756 380.944 376.192 382.06 377.896 384.292C379.6 386.5 380.452 389.668 380.452 393.796C380.452 397.924 379.6 401.116 377.896 403.372C376.192 405.604 373.756 406.72 370.588 406.72C367.42 406.72 364.984 405.604 363.28 403.372C361.576 401.116 360.724 397.924 360.724 393.796C360.724 389.668 361.576 386.5 363.28 384.292C364.984 382.06 367.42 380.944 370.588 380.944ZM370.588 386.092C369.916 386.092 369.388 386.32 369.004 386.776C368.644 387.208 368.38 387.976 368.212 389.08C368.068 390.184 367.996 391.756 367.996 393.796C367.996 395.86 368.068 397.444 368.212 398.548C368.38 399.628 368.644 400.396 369.004 400.852C369.388 401.308 369.916 401.536 370.588 401.536C371.284 401.536 371.812 401.332 372.172 400.924C372.532 400.492 372.784 399.724 372.928 398.62C373.096 397.516 373.18 395.908 373.18 393.796C373.18 391.66 373.096 390.052 372.928 388.972C372.784 387.868 372.532 387.112 372.172 386.704C371.812 386.296 371.284 386.092 370.588 386.092Z" fill="black"/>
<path d="M268.938 380.944C270.882 380.944 272.538 381.268 273.906 381.916C275.274 382.564 276.294 383.44 276.966 384.544C277.662 385.624 278.01 386.812 278.01 388.108C278.01 389.332 277.782 390.472 277.326 391.528C276.894 392.584 276.03 393.832 274.734 395.272C273.462 396.712 271.566 398.512 269.046 400.672H278.514L277.794 406H260.982V401.104C263.766 398.464 265.818 396.436 267.138 395.02C268.482 393.604 269.418 392.44 269.946 391.528C270.474 390.616 270.738 389.74 270.738 388.9C270.738 388.084 270.51 387.448 270.054 386.992C269.598 386.512 268.962 386.272 268.146 386.272C267.354 386.272 266.634 386.476 265.986 386.884C265.362 387.268 264.714 387.88 264.042 388.72L259.974 385.48C261.006 384.088 262.278 382.984 263.79 382.168C265.302 381.352 267.018 380.944 268.938 380.944ZM289.261 380.944C291.373 380.944 293.173 381.352 294.661 382.168C296.149 382.96 297.265 384.076 298.009 385.516C298.753 386.932 299.125 388.564 299.125 390.412C299.125 393.7 298.537 396.472 297.361 398.728C296.185 400.984 294.373 402.796 291.925 404.164C289.501 405.532 286.381 406.528 282.565 407.152L281.161 402.256C283.273 401.8 284.977 401.308 286.273 400.78C287.569 400.252 288.613 399.604 289.405 398.836C290.221 398.044 290.869 397.036 291.349 395.812C290.677 396.484 289.969 396.976 289.225 397.288C288.505 397.6 287.617 397.756 286.561 397.756C285.265 397.756 284.077 397.432 282.997 396.784C281.917 396.112 281.053 395.164 280.405 393.94C279.757 392.692 279.433 391.24 279.433 389.584C279.433 387.904 279.853 386.416 280.693 385.12C281.557 383.8 282.733 382.78 284.221 382.06C285.733 381.316 287.413 380.944 289.261 380.944ZM288.937 392.932C289.465 392.932 289.981 392.8 290.485 392.536C290.989 392.272 291.433 391.864 291.817 391.312C291.841 389.92 291.769 388.84 291.601 388.072C291.457 387.28 291.193 386.716 290.809 386.38C290.449 386.02 289.909 385.84 289.189 385.84C288.397 385.84 287.761 386.128 287.281 386.704C286.801 387.28 286.561 388.12 286.561 389.224C286.561 391.696 287.353 392.932 288.937 392.932Z" fill="black"/>
<path d="M110.731 380.944C112.675 380.944 114.331 381.268 115.699 381.916C117.067 382.564 118.087 383.44 118.759 384.544C119.455 385.624 119.803 386.812 119.803 388.108C119.803 389.332 119.575 390.472 119.119 391.528C118.687 392.584 117.823 393.832 116.527 395.272C115.255 396.712 113.359 398.512 110.839 400.672H120.307L119.587 406H102.775V401.104C105.559 398.464 107.611 396.436 108.931 395.02C110.275 393.604 111.211 392.44 111.739 391.528C112.267 390.616 112.531 389.74 112.531 388.9C112.531 388.084 112.303 387.448 111.847 386.992C111.391 386.512 110.755 386.272 109.939 386.272C109.147 386.272 108.427 386.476 107.779 386.884C107.155 387.268 106.507 387.88 105.835 388.72L101.767 385.48C102.799 384.088 104.071 382.984 105.583 382.168C107.095 381.352 108.811 380.944 110.731 380.944ZM137.678 381.52V386.2L128.786 406.72L122.342 404.56L130.19 386.776H120.866V381.52H137.678Z" fill="black"/>
<path d="M188.464 380.944C190.408 380.944 192.064 381.268 193.432 381.916C194.8 382.564 195.82 383.44 196.492 384.544C197.188 385.624 197.536 386.812 197.536 388.108C197.536 389.332 197.308 390.472 196.852 391.528C196.42 392.584 195.556 393.832 194.26 395.272C192.988 396.712 191.092 398.512 188.572 400.672H198.04L197.32 406H180.508V401.104C183.292 398.464 185.344 396.436 186.664 395.02C188.008 393.604 188.944 392.44 189.472 391.528C190 390.616 190.264 389.74 190.264 388.9C190.264 388.084 190.036 387.448 189.58 386.992C189.124 386.512 188.488 386.272 187.672 386.272C186.88 386.272 186.16 386.476 185.512 386.884C184.888 387.268 184.24 387.88 183.568 388.72L179.5 385.48C180.532 384.088 181.804 382.984 183.316 382.168C184.828 381.352 186.544 380.944 188.464 380.944ZM214.898 392.86C216.53 393.7 217.718 394.66 218.462 395.74C219.23 396.796 219.614 397.996 219.614 399.34C219.614 400.66 219.218 401.884 218.426 403.012C217.634 404.14 216.47 405.04 214.934 405.712C213.398 406.384 211.55 406.72 209.39 406.72C207.326 406.72 205.55 406.396 204.062 405.748C202.574 405.076 201.434 404.188 200.642 403.084C199.874 401.98 199.49 400.768 199.49 399.448C199.49 398.104 199.862 396.94 200.606 395.956C201.374 394.948 202.454 394.144 203.846 393.544C201.566 392.056 200.426 390.1 200.426 387.676C200.426 386.404 200.798 385.264 201.542 384.256C202.286 383.224 203.354 382.42 204.746 381.844C206.138 381.244 207.746 380.944 209.57 380.944C212.354 380.944 214.562 381.52 216.194 382.672C217.85 383.8 218.678 385.348 218.678 387.316C218.678 388.324 218.366 389.32 217.742 390.304C217.118 391.288 216.17 392.14 214.898 392.86ZM209.606 385.588C208.886 385.588 208.322 385.78 207.914 386.164C207.506 386.524 207.302 387.064 207.302 387.784C207.302 388.408 207.458 388.96 207.77 389.44C208.082 389.896 208.598 390.304 209.318 390.664L210.182 391.024C210.83 390.52 211.262 390.004 211.478 389.476C211.694 388.948 211.802 388.36 211.802 387.712C211.802 387.064 211.61 386.548 211.226 386.164C210.866 385.78 210.326 385.588 209.606 385.588ZM209.642 401.752C210.602 401.752 211.322 401.512 211.802 401.032C212.306 400.552 212.558 399.952 212.558 399.232C212.558 398.44 212.342 397.816 211.91 397.36C211.478 396.904 210.746 396.46 209.714 396.028L208.346 395.524C207.746 395.932 207.29 396.436 206.978 397.036C206.69 397.636 206.546 398.296 206.546 399.016C206.546 399.832 206.822 400.492 207.374 400.996C207.95 401.5 208.706 401.752 209.642 401.752Z" fill="black"/>
<path d="M356.852 221.52V246H349.94V228.288L344.936 231.348L341.84 226.704L350.516 221.52H356.852ZM372.455 229.296C373.871 229.296 375.119 229.632 376.199 230.304C377.279 230.976 378.119 231.936 378.719 233.184C379.319 234.432 379.619 235.908 379.619 237.612C379.619 239.244 379.247 240.756 378.503 242.148C377.759 243.516 376.667 244.62 375.227 245.46C373.787 246.3 372.083 246.72 370.115 246.72C366.803 246.72 364.319 245.676 362.663 243.588C361.007 241.5 360.179 238.632 360.179 234.984C360.179 232.176 360.647 229.716 361.583 227.604C362.519 225.492 363.851 223.86 365.579 222.708C367.307 221.532 369.347 220.944 371.699 220.944C372.875 220.944 373.955 221.1 374.939 221.412C375.947 221.7 376.823 222.096 377.567 222.6L375.011 226.74C374.483 226.452 373.979 226.236 373.499 226.092C373.043 225.924 372.515 225.84 371.915 225.84C370.763 225.84 369.815 226.272 369.071 227.136C368.351 228 367.883 229.296 367.667 231.024C369.107 229.872 370.703 229.296 372.455 229.296ZM370.187 241.752C370.979 241.752 371.555 241.392 371.915 240.672C372.299 239.952 372.491 238.944 372.491 237.648C372.491 236.304 372.311 235.368 371.951 234.84C371.615 234.288 371.039 234.012 370.223 234.012C369.383 234.012 368.531 234.372 367.667 235.092C367.667 236.796 367.739 238.128 367.883 239.088C368.051 240.024 368.315 240.708 368.675 241.14C369.035 241.548 369.539 241.752 370.187 241.752Z" fill="black"/>
<path d="M516.553 221.52V246H509.641V228.288L504.637 231.348L501.541 226.704L510.217 221.52H516.553ZM535.036 232.86C536.668 233.7 537.856 234.66 538.6 235.74C539.368 236.796 539.752 237.996 539.752 239.34C539.752 240.66 539.356 241.884 538.564 243.012C537.772 244.14 536.608 245.04 535.072 245.712C533.536 246.384 531.688 246.72 529.528 246.72C527.464 246.72 525.688 246.396 524.2 245.748C522.712 245.076 521.572 244.188 520.78 243.084C520.012 241.98 519.628 240.768 519.628 239.448C519.628 238.104 520 236.94 520.744 235.956C521.512 234.948 522.592 234.144 523.984 233.544C521.704 232.056 520.564 230.1 520.564 227.676C520.564 226.404 520.936 225.264 521.68 224.256C522.424 223.224 523.492 222.42 524.884 221.844C526.276 221.244 527.884 220.944 529.708 220.944C532.492 220.944 534.7 221.52 536.332 222.672C537.988 223.8 538.816 225.348 538.816 227.316C538.816 228.324 538.504 229.32 537.88 230.304C537.256 231.288 536.308 232.14 535.036 232.86ZM529.744 225.588C529.024 225.588 528.46 225.78 528.052 226.164C527.644 226.524 527.44 227.064 527.44 227.784C527.44 228.408 527.596 228.96 527.908 229.44C528.22 229.896 528.736 230.304 529.456 230.664L530.32 231.024C530.968 230.52 531.4 230.004 531.616 229.476C531.832 228.948 531.94 228.36 531.94 227.712C531.94 227.064 531.748 226.548 531.364 226.164C531.004 225.78 530.464 225.588 529.744 225.588ZM529.78 241.752C530.74 241.752 531.46 241.512 531.94 241.032C532.444 240.552 532.696 239.952 532.696 239.232C532.696 238.44 532.48 237.816 532.048 237.36C531.616 236.904 530.884 236.46 529.852 236.028L528.484 235.524C527.884 235.932 527.428 236.436 527.116 237.036C526.828 237.636 526.684 238.296 526.684 239.016C526.684 239.832 526.96 240.492 527.512 240.996C528.088 241.5 528.844 241.752 529.78 241.752Z" fill="black"/>
<path d="M438.645 221.52V246H431.733V228.288L426.729 231.348L423.633 226.704L432.309 221.52H438.645ZM457.992 221.52V226.2L449.1 246.72L442.656 244.56L450.504 226.776H441.18V221.52H457.992Z" fill="black"/>
<path d="M276.309 221.52V246H269.397V228.288L264.393 231.348L261.297 226.704L269.973 221.52H276.309ZM295.764 226.488H287.304V230.412C288.408 229.908 289.548 229.656 290.724 229.656C292.068 229.656 293.268 229.98 294.324 230.628C295.404 231.252 296.256 232.176 296.88 233.4C297.504 234.624 297.816 236.076 297.816 237.756C297.816 239.532 297.396 241.104 296.556 242.472C295.716 243.816 294.516 244.86 292.956 245.604C291.396 246.348 289.584 246.72 287.52 246.72C283.896 246.72 281.004 245.364 278.844 242.652L282.768 239.088C283.968 240.672 285.444 241.464 287.196 241.464C288.276 241.464 289.104 241.164 289.68 240.564C290.256 239.94 290.544 239.04 290.544 237.864C290.544 236.616 290.292 235.728 289.788 235.2C289.308 234.648 288.612 234.372 287.7 234.372C286.908 234.372 286.044 234.66 285.108 235.236H280.464V221.52H296.52L295.764 226.488Z" fill="black"/>
<path d="M195.799 221.52V246H188.887V228.288L183.883 231.348L180.787 226.704L189.463 221.52H195.799ZM218.674 235.92V241.176H216.154V246H209.17L209.134 241.176H198.874V236.532L205.606 220.764L211.69 222.924L206.182 235.92H209.206L210.034 230.592H216.154V235.92H218.674Z" fill="black"/>
<path d="M116.748 221.52V246H109.836V228.288L104.832 231.348L101.736 226.704L110.412 221.52H116.748ZM127.996 220.944C129.844 220.944 131.416 221.208 132.712 221.736C134.032 222.264 135.028 222.996 135.7 223.932C136.372 224.868 136.708 225.936 136.708 227.136C136.708 228.6 136.3 229.836 135.484 230.844C134.668 231.852 133.468 232.596 131.884 233.076C133.54 233.268 134.896 233.868 135.952 234.876C137.008 235.86 137.536 237.3 137.536 239.196C137.536 240.564 137.152 241.824 136.384 242.976C135.64 244.104 134.512 245.016 133 245.712C131.512 246.384 129.712 246.72 127.6 246.72C123.736 246.72 120.724 245.4 118.564 242.76L122.272 239.124C123.112 239.94 123.892 240.528 124.612 240.888C125.356 241.224 126.184 241.392 127.096 241.392C128.032 241.392 128.788 241.152 129.364 240.672C129.964 240.192 130.264 239.496 130.264 238.584C130.264 237.552 129.976 236.796 129.4 236.316C128.848 235.836 127.972 235.596 126.772 235.596H124.612L125.404 230.844H126.88C127.864 230.844 128.608 230.628 129.112 230.196C129.616 229.74 129.868 229.128 129.868 228.36C129.868 227.64 129.616 227.088 129.112 226.704C128.632 226.296 127.96 226.092 127.096 226.092C125.44 226.092 123.904 226.776 122.488 228.144L118.996 224.472C121.42 222.12 124.42 220.944 127.996 220.944Z" fill="black"/>
<path d="M209.308 141.52V146.2L200.416 166.72L193.972 164.56L201.82 146.776H192.496V141.52H209.308Z" fill="black"/>
<path d="M286.353 152.86C287.985 153.7 289.173 154.66 289.917 155.74C290.685 156.796 291.069 157.996 291.069 159.34C291.069 160.66 290.673 161.884 289.881 163.012C289.089 164.14 287.925 165.04 286.389 165.712C284.853 166.384 283.005 166.72 280.845 166.72C278.781 166.72 277.005 166.396 275.517 165.748C274.029 165.076 272.889 164.188 272.097 163.084C271.329 161.98 270.945 160.768 270.945 159.448C270.945 158.104 271.317 156.94 272.061 155.956C272.829 154.948 273.909 154.144 275.301 153.544C273.021 152.056 271.881 150.1 271.881 147.676C271.881 146.404 272.253 145.264 272.997 144.256C273.741 143.224 274.809 142.42 276.201 141.844C277.593 141.244 279.201 140.944 281.025 140.944C283.809 140.944 286.017 141.52 287.649 142.672C289.305 143.8 290.133 145.348 290.133 147.316C290.133 148.324 289.821 149.32 289.197 150.304C288.573 151.288 287.625 152.14 286.353 152.86ZM281.061 145.588C280.341 145.588 279.777 145.78 279.369 146.164C278.961 146.524 278.757 147.064 278.757 147.784C278.757 148.408 278.913 148.96 279.225 149.44C279.537 149.896 280.053 150.304 280.773 150.664L281.637 151.024C282.285 150.52 282.717 150.004 282.933 149.476C283.149 148.948 283.257 148.36 283.257 147.712C283.257 147.064 283.065 146.548 282.681 146.164C282.321 145.78 281.781 145.588 281.061 145.588ZM281.097 161.752C282.057 161.752 282.777 161.512 283.257 161.032C283.761 160.552 284.013 159.952 284.013 159.232C284.013 158.44 283.797 157.816 283.365 157.36C282.933 156.904 282.201 156.46 281.169 156.028L279.801 155.524C279.201 155.932 278.745 156.436 278.433 157.036C278.145 157.636 278.001 158.296 278.001 159.016C278.001 159.832 278.277 160.492 278.829 160.996C279.405 161.5 280.161 161.752 281.097 161.752Z" fill="black"/>
<path d="M360.891 140.944C363.003 140.944 364.803 141.352 366.291 142.168C367.779 142.96 368.895 144.076 369.639 145.516C370.383 146.932 370.755 148.564 370.755 150.412C370.755 153.7 370.167 156.472 368.991 158.728C367.815 160.984 366.003 162.796 363.555 164.164C361.131 165.532 358.011 166.528 354.195 167.152L352.791 162.256C354.903 161.8 356.607 161.308 357.903 160.78C359.199 160.252 360.243 159.604 361.035 158.836C361.851 158.044 362.499 157.036 362.979 155.812C362.307 156.484 361.599 156.976 360.855 157.288C360.135 157.6 359.247 157.756 358.191 157.756C356.895 157.756 355.707 157.432 354.627 156.784C353.547 156.112 352.683 155.164 352.035 153.94C351.387 152.692 351.063 151.24 351.063 149.584C351.063 147.904 351.483 146.416 352.323 145.12C353.187 143.8 354.363 142.78 355.851 142.06C357.363 141.316 359.043 140.944 360.891 140.944ZM360.567 152.932C361.095 152.932 361.611 152.8 362.115 152.536C362.619 152.272 363.063 151.864 363.447 151.312C363.471 149.92 363.399 148.84 363.231 148.072C363.087 147.28 362.823 146.716 362.439 146.38C362.079 146.02 361.539 145.84 360.819 145.84C360.027 145.84 359.391 146.128 358.911 146.704C358.431 147.28 358.191 148.12 358.191 149.224C358.191 151.696 358.983 152.932 360.567 152.932Z" fill="black"/>
<path d="M518.996 141.52V166H512.084V148.288L507.08 151.348L503.984 146.704L512.66 141.52H518.996ZM535.66 141.52V166H528.748V148.288L523.744 151.348L520.648 146.704L529.324 141.52H535.66Z" fill="black"/>
<path d="M436.5 141.52V166H429.588V148.288L424.584 151.348L421.488 146.704L430.164 141.52H436.5ZM449.691 140.944C452.859 140.944 455.295 142.06 456.999 144.292C458.703 146.5 459.555 149.668 459.555 153.796C459.555 157.924 458.703 161.116 456.999 163.372C455.295 165.604 452.859 166.72 449.691 166.72C446.523 166.72 444.087 165.604 442.383 163.372C440.679 161.116 439.827 157.924 439.827 153.796C439.827 149.668 440.679 146.5 442.383 144.292C444.087 142.06 446.523 140.944 449.691 140.944ZM449.691 146.092C449.019 146.092 448.491 146.32 448.107 146.776C447.747 147.208 447.483 147.976 447.315 149.08C447.171 150.184 447.099 151.756 447.099 153.796C447.099 155.86 447.171 157.444 447.315 158.548C447.483 159.628 447.747 160.396 448.107 160.852C448.491 161.308 449.019 161.536 449.691 161.536C450.387 161.536 450.915 161.332 451.275 160.924C451.635 160.492 451.887 159.724 452.031 158.62C452.199 157.516 452.283 155.908 452.283 153.796C452.283 151.66 452.199 150.052 452.031 148.972C451.887 147.868 451.635 147.112 451.275 146.704C450.915 146.296 450.387 146.092 449.691 146.092Z" fill="black"/>
<path d="M530.991 75.92V81.176H528.471V86H521.487L521.451 81.176H511.191V76.532L517.923 60.764L524.007 62.924L518.499 75.92H521.523L522.351 70.592H528.471V75.92H530.991Z" fill="black"/>
<path d="M360.239 60.944C362.183 60.944 363.839 61.268 365.207 61.916C366.575 62.564 367.595 63.44 368.267 64.544C368.963 65.624 369.311 66.812 369.311 68.108C369.311 69.332 369.083 70.472 368.627 71.528C368.195 72.584 367.331 73.832 366.035 75.272C364.763 76.712 362.867 78.512 360.347 80.672H369.815L369.095 86H352.283V81.104C355.067 78.464 357.119 76.436 358.439 75.02C359.783 73.604 360.719 72.44 361.247 71.528C361.775 70.616 362.039 69.74 362.039 68.9C362.039 68.084 361.811 67.448 361.355 66.992C360.899 66.512 360.263 66.272 359.447 66.272C358.655 66.272 357.935 66.476 357.287 66.884C356.663 67.268 356.015 67.88 355.343 68.72L351.275 65.48C352.307 64.088 353.579 62.984 355.091 62.168C356.603 61.352 358.319 60.944 360.239 60.944Z" fill="black"/>
</svg>
