<svg width="43" height="42" viewBox="0 0 43 42" fill="none" xmlns="http://www.w3.org/2000/svg">
<mask id="mask0_1670_337" style="mask-type:alpha" maskUnits="userSpaceOnUse" x="0" y="0" width="43" height="42">
<rect x="0.352539" y="0.0458984" width="41.9095" height="41.9095" fill="#D9D9D9"/>
</mask>
<g mask="url(#mask0_1670_337)">
<path d="M21.3067 22.7476C19.8516 22.7476 18.6146 22.2383 17.596 21.2196C16.5774 20.201 16.0681 18.9641 16.0681 17.5089C16.0681 16.0537 16.5774 14.8168 17.596 13.7982C18.6146 12.7795 19.8516 12.2702 21.3067 12.2702C22.7619 12.2702 23.9988 12.7795 25.0175 13.7982C26.0361 14.8168 26.5454 16.0537 26.5454 17.5089C26.5454 18.9641 26.0361 20.201 25.0175 21.2196C23.9988 22.2383 22.7619 22.7476 21.3067 22.7476ZM10.8294 40.2099V26.7202C9.72343 25.4979 8.86486 24.1009 8.25368 22.5293C7.6425 20.9577 7.33691 19.2842 7.33691 17.5089C7.33691 13.609 8.69024 10.3057 11.3969 7.59904C14.1035 4.89239 17.4068 3.53906 21.3067 3.53906C25.2067 3.53906 28.5099 4.89239 31.2166 7.59904C33.9232 10.3057 35.2766 13.609 35.2766 17.5089C35.2766 19.2842 34.971 20.9577 34.3598 22.5293C33.7486 24.1009 32.8901 25.4979 31.7841 26.7202V40.2099L21.3067 36.7174L10.8294 40.2099ZM21.3067 27.9863C24.2171 27.9863 26.6909 26.9676 28.7282 24.9304C30.7655 22.8931 31.7841 20.4193 31.7841 17.5089C31.7841 14.5985 30.7655 12.1247 28.7282 10.0874C26.6909 8.05015 24.2171 7.03152 21.3067 7.03152C18.3964 7.03152 15.9225 8.05015 13.8853 10.0874C11.848 12.1247 10.8294 14.5985 10.8294 17.5089C10.8294 20.4193 11.848 22.8931 13.8853 24.9304C15.9225 26.9676 18.3964 27.9863 21.3067 27.9863ZM14.3218 35.0148L21.3067 33.2249L28.2917 35.0148V29.6015C27.273 30.1836 26.1744 30.642 24.9957 30.9767C23.8169 31.3114 22.5873 31.4787 21.3067 31.4787C20.0262 31.4787 18.7965 31.3114 17.6178 30.9767C16.4391 30.642 15.3405 30.1836 14.3218 29.6015V35.0148Z" fill="#684A43"/>
</g>
</svg>
