<svg width="35" height="35" viewBox="0 0 35 35" fill="none" xmlns="http://www.w3.org/2000/svg">
<mask id="mask0_2810_150" style="mask-type:alpha" maskUnits="userSpaceOnUse" x="0" y="0" width="35" height="35">
<rect width="35" height="35" fill="#D9D9D9"/>
</mask>
<g mask="url(#mask0_2810_150)">
<path d="M10.208 30.625C9.40592 30.625 8.71929 30.3394 8.14811 29.7682C7.57693 29.1971 7.29134 28.5104 7.29134 27.7083V8.75H5.83301V5.83333H13.1247V4.375H21.8747V5.83333H29.1663V8.75H27.708V27.7083C27.708 28.5104 27.4224 29.1971 26.8512 29.7682C26.2801 30.3394 25.5934 30.625 24.7913 30.625H10.208ZM24.7913 8.75H10.208V27.7083H24.7913V8.75ZM13.1247 24.7917H16.0413V11.6667H13.1247V24.7917ZM18.958 24.7917H21.8747V11.6667H18.958V24.7917Z" fill="#CD5555"/>
</g>
</svg>
