<svg width="50" height="50" viewBox="0 0 50 50" fill="none" xmlns="http://www.w3.org/2000/svg">
<mask id="mask0_1663_267" style="mask-type:alpha" maskUnits="userSpaceOnUse" x="0" y="0" width="50" height="50">
<rect width="50" height="50" fill="#D9D9D9"/>
</mask>
<g mask="url(#mask0_1663_267)">
<path d="M10.4167 8.33366V20.8857V20.8337V41.667V8.33366ZM10.4167 45.8337C9.27083 45.8337 8.28993 45.4257 7.47396 44.6097C6.65799 43.7937 6.25 42.8128 6.25 41.667V8.33366C6.25 7.18783 6.65799 6.20692 7.47396 5.39095C8.28993 4.57498 9.27083 4.16699 10.4167 4.16699H27.0833L39.5833 16.667V21.8753C38.9236 21.5975 38.2465 21.3805 37.5521 21.2243C36.8576 21.068 36.1458 20.9552 35.4167 20.8857V18.7503H25V8.33366H10.4167V41.667H22.9688C23.5243 42.5003 24.1493 43.2729 24.8438 43.9847C25.5382 44.6965 26.3021 45.3128 27.1354 45.8337H10.4167ZM34.375 39.5837C35.8333 39.5837 37.066 39.0802 38.0729 38.0732C39.0799 37.0663 39.5833 35.8337 39.5833 34.3753C39.5833 32.917 39.0799 31.6844 38.0729 30.6774C37.066 29.6705 35.8333 29.167 34.375 29.167C32.9167 29.167 31.684 29.6705 30.6771 30.6774C29.6701 31.6844 29.1667 32.917 29.1667 34.3753C29.1667 35.8337 29.6701 37.0663 30.6771 38.0732C31.684 39.0802 32.9167 39.5837 34.375 39.5837ZM45 47.917L39.375 42.292C38.6458 42.7781 37.8559 43.1427 37.0052 43.3857C36.1545 43.6288 35.2778 43.7503 34.375 43.7503C31.7708 43.7503 29.5573 42.8389 27.7344 41.0159C25.9115 39.193 25 36.9795 25 34.3753C25 31.7712 25.9115 29.5576 27.7344 27.7347C29.5573 25.9118 31.7708 25.0003 34.375 25.0003C36.9792 25.0003 39.1927 25.9118 41.0156 27.7347C42.8385 29.5576 43.75 31.7712 43.75 34.3753C43.75 35.2781 43.6285 36.1548 43.3854 37.0055C43.1424 37.8562 42.7778 38.6462 42.2917 39.3753L47.9167 45.0003L45 47.917Z" fill="#1C1B1F"/>
</g>
</svg>
