<svg width="39" height="35" viewBox="0 0 39 35" fill="none" xmlns="http://www.w3.org/2000/svg">
<mask id="mask0_2890_39" style="mask-type:alpha" maskUnits="userSpaceOnUse" x="0" y="0" width="39" height="35">
<rect width="38.7333" height="35" fill="#D9D9D9"/>
</mask>
<g mask="url(#mask0_2890_39)">
<path d="M8.06957 30.625C7.18194 30.625 6.42206 30.3394 5.78996 29.7682C5.15785 29.1971 4.8418 28.5104 4.8418 27.7083V7.29167C4.8418 6.48958 5.15785 5.80295 5.78996 5.23177C6.42206 4.66059 7.18194 4.375 8.06957 4.375H22.4735L19.2458 7.29167H8.06957V27.7083H30.664V17.5729L33.8918 14.6562V27.7083C33.8918 28.5104 33.5757 29.1971 32.9436 29.7682C32.3115 30.3394 31.5517 30.625 30.664 30.625H8.06957ZM14.5251 21.875V15.6771L29.3326 2.29688C29.6553 2.00521 30.0185 1.78646 30.4219 1.64063C30.8254 1.49479 31.2289 1.42188 31.6324 1.42188C32.0627 1.42188 32.4729 1.49479 32.8629 1.64063C33.253 1.78646 33.6094 2.00521 33.9321 2.29688L36.1916 4.375C36.4875 4.66667 36.7161 4.98872 36.8775 5.34115C37.0389 5.69358 37.1196 6.05208 37.1196 6.41667C37.1196 6.78125 37.0456 7.13976 36.8977 7.49219C36.7497 7.84462 36.5144 8.16667 36.1916 8.45833L21.3842 21.875H14.5251ZM17.7529 18.9583H20.0124L29.3729 10.5L28.2432 9.47917L27.0731 8.45833L17.7529 16.8802V18.9583Z" fill="#1C1B1F"/>
</g>
</svg>