<svg width="30" height="30" viewBox="0 0 30 30" fill="none" xmlns="http://www.w3.org/2000/svg">
<mask id="mask0_1670_327" style="mask-type:alpha" maskUnits="userSpaceOnUse" x="0" y="0" width="30" height="30">
<rect width="30" height="30" fill="#D9D9D9"/>
</mask>
<g mask="url(#mask0_1670_327)">
<path d="M22.5 26.25H8.75V10L17.5 1.25L19.0625 2.8125C19.2083 2.95833 19.3281 3.15625 19.4219 3.40625C19.5156 3.65625 19.5625 3.89583 19.5625 4.125V4.5625L18.1875 10H26.25C26.9167 10 27.5 10.25 28 10.75C28.5 11.25 28.75 11.8333 28.75 12.5V15C28.75 15.1458 28.7292 15.3021 28.6875 15.4688C28.6458 15.6354 28.6042 15.7917 28.5625 15.9375L24.8125 24.75C24.625 25.1667 24.3125 25.5208 23.875 25.8125C23.4375 26.1042 22.9792 26.25 22.5 26.25ZM11.25 23.75H22.5L26.25 15V12.5H15L16.6875 5.625L11.25 11.0625V23.75ZM8.75 10V12.5H5V23.75H8.75V26.25H2.5V10H8.75Z" fill="black"/>
</g>
</svg>
