<svg width="34" height="34" viewBox="0 0 34 34" fill="none" xmlns="http://www.w3.org/2000/svg">
<mask id="mask0_2890_65" style="mask-type:alpha" maskUnits="userSpaceOnUse" x="0" y="0" width="34" height="34">
<rect width="34" height="34" fill="#D9D9D9"/>
</mask>
<g mask="url(#mask0_2890_65)">
<path d="M15.3528 26.7147C15.4832 27.1464 15.6624 27.5944 15.8904 28.0585C16.1185 28.5226 16.352 28.9382 16.591 29.3052H7.14182C6.42499 29.3052 5.81134 29.0515 5.30086 28.5442C4.79039 28.0369 4.53516 27.4271 4.53516 26.7147V5.99087C4.53516 5.27849 4.79039 4.66864 5.30086 4.16134C5.81134 3.65404 6.42499 3.40039 7.14182 3.40039H22.7818C23.4987 3.40039 24.1123 3.65404 24.6228 4.16134C25.1333 4.66864 25.3885 5.27849 25.3885 5.99087V15.1871C24.9975 15.1439 24.563 15.1223 24.0852 15.1223C23.6073 15.1223 23.1728 15.1439 22.7818 15.1871V5.99087H16.2652V15.0575L13.0068 13.1147L9.74849 15.0575V5.99087H7.14182V26.7147H15.3528ZM24.0852 30.6004C22.2822 30.6004 20.7454 29.969 19.4746 28.7061C18.2039 27.4432 17.5685 25.9159 17.5685 24.1242C17.5685 22.3325 18.2039 20.8052 19.4746 19.5423C20.7454 18.2794 22.2822 17.648 24.0852 17.648C25.8881 17.648 27.4249 18.2794 28.6957 19.5423C29.9664 20.8052 30.6018 22.3325 30.6018 24.1242C30.6018 25.9159 29.9664 27.4432 28.6957 28.7061C27.4249 29.969 25.8881 30.6004 24.0852 30.6004ZM22.456 27.3623L27.6693 24.1242L22.456 20.8861V27.3623ZM15.3528 5.99087H7.14182H22.7818H14.9618H15.3528Z" fill="black"/>
</g>
</svg>