<svg width="35" height="35" viewBox="0 0 35 35" fill="none" xmlns="http://www.w3.org/2000/svg">
<mask id="mask0_2882_1370" style="mask-type:alpha" maskUnits="userSpaceOnUse" x="0" y="0" width="35" height="35">
<rect x="0.210938" y="0.976562" width="34" height="34" fill="#D9D9D9"/>
</mask>
<g mask="url(#mask0_2882_1370)">
<path d="M29.0491 15.1444L27.2222 13.3186L28.2009 12.3079L24.025 8.13468L23.0136 9.11277L21.1541 7.25439L22.1328 6.24369C22.633 5.74377 23.2529 5.49924 23.9924 5.51011C24.7318 5.52098 25.3517 5.77637 25.8519 6.27629L30.0604 10.4821C30.5607 10.982 30.8108 11.5961 30.8108 12.3242C30.8108 13.0523 30.5607 13.6664 30.0604 14.1663L29.0491 15.1444ZM13.3895 30.8266C12.8893 31.3265 12.2749 31.5764 11.5463 31.5764C10.8177 31.5764 10.2032 31.3265 9.70301 30.8266L5.4945 26.6207C4.99426 26.1208 4.74414 25.5068 4.74414 24.7786C4.74414 24.0505 4.99426 23.4365 5.4945 22.9366L6.47322 21.9585L8.33279 23.8169L7.32145 24.7949L11.53 29.0008L12.5087 27.9901L14.3683 29.8485L13.3895 30.8266ZM26.3413 19.8719L28.2009 18.0135L18.3158 8.13468L16.4562 9.99306L26.3413 19.8719ZM17.2066 29.0008L19.0661 27.1098L9.21364 17.2636L7.32145 19.122L17.2066 29.0008ZM17.0108 21.3716L20.5995 17.8178L18.5115 15.7312L14.9555 19.3176L17.0108 21.3716ZM19.0661 30.8266C18.5659 31.3265 17.946 31.5764 17.2066 31.5764C16.4671 31.5764 15.8472 31.3265 15.347 30.8266L5.4945 20.9804C4.99426 20.4805 4.74414 19.861 4.74414 19.122C4.74414 18.383 4.99426 17.7635 5.4945 17.2636L7.35407 15.4052C7.85431 14.9053 8.46873 14.6553 9.19733 14.6553C9.92594 14.6553 10.5404 14.9053 11.0406 15.4052L13.0959 17.4592L16.6846 13.8729L14.6292 11.8514C14.129 11.3515 13.8789 10.7321 13.8789 9.99306C13.8789 9.25406 14.129 8.63459 14.6292 8.13468L16.4888 6.27629C16.9891 5.77637 17.6035 5.52641 18.3321 5.52641C19.0607 5.52641 19.6751 5.77637 20.1753 6.27629L30.0604 16.1551C30.5607 16.655 30.8108 17.269 30.8108 17.9972C30.8108 18.7253 30.5607 19.3393 30.0604 19.8393L28.2009 21.6976C27.7006 22.1976 27.0808 22.4475 26.3413 22.4475C25.6018 22.4475 24.982 22.1976 24.4817 21.6976L22.459 19.6436L18.8704 23.23L20.9257 25.284C21.4259 25.7839 21.6761 26.3979 21.6761 27.1261C21.6761 27.8542 21.4259 28.4683 20.9257 28.9682L19.0661 30.8266Z" fill="black"/>
</g>
</svg>