<svg width="24" height="24" viewBox="0 0 24 24" fill="none" xmlns="http://www.w3.org/2000/svg">
<mask id="mask0_1961_4" style="mask-type:alpha" maskUnits="userSpaceOnUse" x="0" y="0" width="24" height="24">
<rect width="24" height="24" fill="#D9D9D9"/>
</mask>
<g mask="url(#mask0_1961_4)">
<path d="M21 7.22222V19.8889C21 20.4694 20.7933 20.9664 20.3799 21.3799C19.9664 21.7933 19.4694 22 18.8889 22H4.11111C3.53056 22 3.03356 21.7933 2.62014 21.3799C2.20671 20.9664 2 20.4694 2 19.8889V5.11111C2 4.53056 2.20671 4.03356 2.62014 3.62014C3.03356 3.20671 3.53056 3 4.11111 3H16.7778L21 7.22222ZM18.8889 8.11944L15.8806 5.11111H4.11111V19.8889H18.8889V8.11944ZM11.5 18.8333C12.3796 18.8333 13.1273 18.5255 13.7431 17.9097C14.3588 17.294 14.6667 16.5463 14.6667 15.6667C14.6667 14.787 14.3588 14.0394 13.7431 13.4236C13.1273 12.8079 12.3796 12.5 11.5 12.5C10.6204 12.5 9.87269 12.8079 9.25694 13.4236C8.6412 14.0394 8.33333 14.787 8.33333 15.6667C8.33333 16.5463 8.6412 17.294 9.25694 17.9097C9.87269 18.5255 10.6204 18.8333 11.5 18.8333ZM5.16667 10.3889H14.6667V6.16667H5.16667V10.3889Z" fill="white"/>
</g>
</svg>
